<svg xmlns="http://www.w3.org/2000/svg" width="586.764892578125" height="605.332763671875" viewBox="-181.23294067382812 -202.2907257080078 586.764892578125 605.332763671875"><title>Neo4j Graph Visualization</title><desc>Created using Neo4j (http://www.neo4j.com/)</desc><g class="layer relationships"><g class="relationship" transform="translate(121.08089091896086 254.9535839490233) rotate(262.98488381962466)"><path class="outline" fill="#A5ABB6" stroke="none" d="M 25 0.5 L 63.661849420113484 0.5 L 63.661849420113484 -0.5 L 25 -0.5 Z M 98.10716192011348 0.5 L 136.76901134022697 0.5 L 136.76901134022697 3.5 L 143.76901134022697 0 L 136.76901134022697 -3.5 L 136.76901134022697 -0.5 L 98.10716192011348 -0.5 Z"/><text text-anchor="middle" pointer-events="none" font-size="8px" fill="#000000" x="80.88450567011348" y="3" transform="rotate(180 80.88450567011348 0)" font-family="sans-serif">ORIGIN</text></g><g class="relationship" transform="translate(121.08089091896086 254.9535839490233) rotate(396.41575199011436)"><path class="outline" fill="#A5ABB6" stroke="none" d="M 25 0.5 L 34.64618382534903 0.5 L 34.64618382534903 -0.5 L 25 -0.5 Z M 93.83368382534903 0.5 L 103.47986765069805 0.5 L 103.47986765069805 3.5 L 110.47986765069805 0 L 103.47986765069805 -3.5 L 103.47986765069805 -0.5 L 93.83368382534903 -0.5 Z"/><text text-anchor="middle" pointer-events="none" font-size="8px" fill="#000000" x="64.23993382534903" y="3" font-family="sans-serif">DESTINATION</text></g><g class="relationship" transform="translate(180.85845255567202 250.08621297386816) rotate(243.6975357224871)"><path class="outline" fill="#A5ABB6" stroke="none" d="M 25 0.5 L 69.987967722238 0.5 L 69.987967722238 -0.5 L 25 -0.5 Z M 104.433280222238 0.5 L 149.421247944476 0.5 L 149.421247944476 3.5 L 156.421247944476 0 L 149.421247944476 -3.5 L 149.421247944476 -0.5 L 104.433280222238 -0.5 Z"/><text text-anchor="middle" pointer-events="none" font-size="8px" fill="#000000" x="87.210623972238" y="3" transform="rotate(180 87.210623972238 0)" font-family="sans-serif">ORIGIN</text></g><g class="relationship" transform="translate(180.85845255567202 250.08621297386816) rotate(419.99852936588064)"><path class="outline" fill="#A5ABB6" stroke="none" d="M 25 0.5 L 26.96575033973611 0.5 L 26.96575033973611 -0.5 L 25 -0.5 Z M 64.5243440897361 0.5 L 66.49009442947222 0.5 L 66.49009442947222 3.5 L 73.49009442947222 0 L 66.49009442947222 -3.5 L 66.49009442947222 -0.5 L 64.5243440897361 -0.5 Z"/><text text-anchor="middle" pointer-events="none" font-size="8px" fill="#000000" x="45.74504721473611" y="3" font-family="sans-serif">DESTI…</text></g><g class="relationship" transform="translate(259.8444388181042 10.422111220709091) rotate(514.2056125456663)"><path class="outline" fill="#A5ABB6" stroke="none" d="M 25 0.5 L 67.7837532452989 0.5 L 67.7837532452989 -0.5 L 25 -0.5 Z M 102.2290657452989 0.5 L 145.0128189905978 0.5 L 145.0128189905978 3.5 L 152.0128189905978 0 L 145.0128189905978 -3.5 L 145.0128189905978 -0.5 L 102.2290657452989 -0.5 Z"/><text text-anchor="middle" pointer-events="none" font-size="8px" fill="#000000" x="85.0064094952989" y="3" transform="rotate(180 85.0064094952989 0)" font-family="sans-serif">ORIGIN</text></g><g class="relationship" transform="translate(259.8444388181042 10.422111220709091) rotate(384.71756907139786)"><path class="outline" fill="#A5ABB6" stroke="none" d="M 25 0.5 L 31.134622411916183 0.5 L 31.134622411916183 -0.5 L 25 -0.5 Z M 90.32212241191618 0.5 L 96.45674482383237 0.5 L 96.45674482383237 3.5 L 103.45674482383237 0 L 96.45674482383237 -3.5 L 96.45674482383237 -0.5 L 90.32212241191618 -0.5 Z"/><text text-anchor="middle" pointer-events="none" font-size="8px" fill="#000000" x="60.72837241191618" y="3" font-family="sans-serif">DESTINATION</text></g><g class="relationship" transform="translate(56.29759243847619 -99.18464796439476) rotate(436.68451791964964)"><path class="outline" fill="#A5ABB6" stroke="none" d="M 25 0.5 L 75.17161634736766 0.5 L 75.17161634736766 -0.5 L 25 -0.5 Z M 109.61692884736766 0.5 L 159.78854519473532 0.5 L 159.78854519473532 3.5 L 166.78854519473532 0 L 159.78854519473532 -3.5 L 159.78854519473532 -0.5 L 109.61692884736766 -0.5 Z"/><text text-anchor="middle" pointer-events="none" font-size="8px" fill="#000000" x="92.39427259736766" y="3" font-family="sans-serif">ORIGIN</text></g><g class="relationship" transform="translate(56.29759243847619 -99.18464796439476) rotate(186.4190103330177)"><path class="outline" fill="#A5ABB6" stroke="none" d="M 25 0.5 L 33.51832047850115 0.5 L 33.51832047850115 -0.5 L 25 -0.5 Z M 92.70582047850115 0.5 L 101.2241409570023 0.5 L 101.2241409570023 3.5 L 108.2241409570023 0 L 101.2241409570023 -3.5 L 101.2241409570023 -0.5 L 92.70582047850115 -0.5 Z"/><text text-anchor="middle" pointer-events="none" font-size="8px" fill="#000000" x="63.11207047850115" y="3" transform="rotate(180 63.11207047850115 0)" font-family="sans-serif">DESTINATION</text></g><g class="relationship" transform="translate(220.75922816425285 55.65907869848839) rotate(525.1969561010135)"><path class="outline" fill="#A5ABB6" stroke="none" d="M 25 0.5 L 41.487251551380346 0.5 L 41.487251551380346 -0.5 L 25 -0.5 Z M 75.93256405138035 0.5 L 92.41981560276069 0.5 L 92.41981560276069 3.5 L 99.41981560276069 0 L 92.41981560276069 -3.5 L 92.41981560276069 -0.5 L 75.93256405138035 -0.5 Z"/><text text-anchor="middle" pointer-events="none" font-size="8px" fill="#000000" x="58.709907801380346" y="3" transform="rotate(180 58.709907801380346 0)" font-family="sans-serif">ORIGIN</text></g><g class="relationship" transform="translate(220.75922816425285 55.65907869848839) rotate(363.11478291652816)"><path class="outline" fill="#A5ABB6" stroke="none" d="M 25 0.5 L 44.90785732006047 0.5 L 44.90785732006047 -0.5 L 25 -0.5 Z M 104.09535732006047 0.5 L 124.00321464012094 0.5 L 124.00321464012094 3.5 L 131.00321464012094 0 L 124.00321464012094 -3.5 L 124.00321464012094 -0.5 L 104.09535732006047 -0.5 Z"/><text text-anchor="middle" pointer-events="none" font-size="8px" fill="#000000" x="74.50160732006047" y="3" font-family="sans-serif">DESTINATION</text></g><g class="relationship" transform="translate(276.1250764196427 77.44331989173135) rotate(536.7401860809233)"><path class="outline" fill="#A5ABB6" stroke="none" d="M 25 0.5 L 67.24775836317288 0.5 L 67.24775836317288 -0.5 L 25 -0.5 Z M 101.69307086317288 0.5 L 143.94082922634576 0.5 L 143.94082922634576 3.5 L 150.94082922634576 0 L 143.94082922634576 -3.5 L 143.94082922634576 -0.5 L 101.69307086317288 -0.5 Z"/><text text-anchor="middle" pointer-events="none" font-size="8px" fill="#000000" x="84.47041461317288" y="3" transform="rotate(180 84.47041461317288 0)" font-family="sans-serif">ORIGIN</text></g><g class="relationship" transform="translate(276.1250764196427 77.44331989173135) rotate(352.4502178575316)"><path class="outline" fill="#A5ABB6" stroke="none" d="M 25 0.5 L 25.474497026599188 0.5 L 25.474497026599188 -0.5 L 25 -0.5 Z M 68.81043452659918 0.5 L 69.28493155319838 0.5 L 69.28493155319838 3.5 L 76.28493155319838 0 L 69.28493155319838 -3.5 L 69.28493155319838 -0.5 L 68.81043452659918 -0.5 Z"/><text text-anchor="middle" pointer-events="none" font-size="8px" fill="#000000" x="47.14246577659919" y="3" font-family="sans-serif">DESTIN…</text></g><g class="relationship" transform="translate(181.46902097629416 -49.380543258147036) rotate(480.6247898158513)"><path class="outline" fill="#A5ABB6" stroke="none" d="M 25 0.5 L 58.78058360834673 0.5 L 58.78058360834673 -0.5 L 25 -0.5 Z M 93.22589610834673 0.5 L 127.00647971669346 0.5 L 127.00647971669346 3.5 L 134.00647971669346 0 L 127.00647971669346 -3.5 L 127.00647971669346 -0.5 L 93.22589610834673 -0.5 Z"/><text text-anchor="middle" pointer-events="none" font-size="8px" fill="#000000" x="76.00323985834673" y="3" transform="rotate(180 76.00323985834673 0)" font-family="sans-serif">ORIGIN</text></g><g class="relationship" transform="translate(181.46902097629416 -49.380543258147036) rotate(300.48910198487346)"><path class="outline" fill="#A5ABB6" stroke="none" d="M 25 0.5 L 38.80278163426233 0.5 L 38.80278163426233 -0.5 L 25 -0.5 Z M 97.99028163426233 0.5 L 111.79306326852466 0.5 L 111.79306326852466 3.5 L 118.79306326852466 0 L 111.79306326852466 -3.5 L 111.79306326852466 -0.5 L 97.99028163426233 -0.5 Z"/><text text-anchor="middle" pointer-events="none" font-size="8px" fill="#000000" x="68.39653163426233" y="3" font-family="sans-serif">DESTINATION</text></g><g class="relationship" transform="translate(10.729619965779595 -60.26403788043928) rotate(418.72011343347253)"><path class="outline" fill="#A5ABB6" stroke="none" d="M 25 0.5 L 65.69491260782951 0.5 L 65.69491260782951 -0.5 L 25 -0.5 Z M 100.14022510782951 0.5 L 140.83513771565902 0.5 L 140.83513771565902 3.5 L 147.83513771565902 0 L 140.83513771565902 -3.5 L 140.83513771565902 -0.5 L 100.14022510782951 -0.5 Z"/><text text-anchor="middle" pointer-events="none" font-size="8px" fill="#000000" x="82.91756885782951" y="3" font-family="sans-serif">ORIGIN</text></g><g class="relationship" transform="translate(10.729619965779595 -60.26403788043928) rotate(211.79218515616503)"><path class="outline" fill="#A5ABB6" stroke="none" d="M 25 0.5 L 25.90531978353168 0.5 L 25.90531978353168 -0.5 L 25 -0.5 Z M 69.24125728353168 0.5 L 70.14657706706336 0.5 L 70.14657706706336 3.5 L 77.14657706706336 0 L 70.14657706706336 -3.5 L 70.14657706706336 -0.5 L 69.24125728353168 -0.5 Z"/><text text-anchor="middle" pointer-events="none" font-size="8px" fill="#000000" x="47.57328853353168" y="3" transform="rotate(180 47.57328853353168 0)" font-family="sans-serif">DESTIN…</text></g><g class="relationship" transform="translate(67.04785968334501 -40.5633397517855) rotate(435.36789095351776)"><path class="outline" fill="#A5ABB6" stroke="none" d="M 25 0.5 L 45.42843356112297 0.5 L 45.42843356112297 -0.5 L 25 -0.5 Z M 79.87374606112297 0.5 L 100.30217962224594 0.5 L 100.30217962224594 3.5 L 107.30217962224594 0 L 100.30217962224594 -3.5 L 100.30217962224594 -0.5 L 79.87374606112297 -0.5 Z"/><text text-anchor="middle" pointer-events="none" font-size="8px" fill="#000000" x="62.65108981112297" y="3" font-family="sans-serif">ORIGIN</text></g><g class="relationship" transform="translate(67.04785968334501 -40.5633397517855) rotate(207.18480709642455)"><path class="outline" fill="#A5ABB6" stroke="none" d="M 25 0.5 L 47.36334269258725 0.5 L 47.36334269258725 -0.5 L 25 -0.5 Z M 106.55084269258725 0.5 L 128.9141853851745 0.5 L 128.9141853851745 3.5 L 135.9141853851745 0 L 128.9141853851745 -3.5 L 128.9141853851745 -0.5 L 106.55084269258725 -0.5 Z"/><text text-anchor="middle" pointer-events="none" font-size="8px" fill="#000000" x="76.95709269258725" y="3" transform="rotate(180 76.95709269258725 0)" font-family="sans-serif">DESTINATION</text></g><g class="relationship" transform="translate(147.24105797778623 201.00030203973347) rotate(247.6132679567915)"><path class="outline" fill="#A5ABB6" stroke="none" d="M 25 0.5 L 40.681254683383685 0.5 L 40.681254683383685 -0.5 L 25 -0.5 Z M 75.12656718338368 0.5 L 90.80782186676737 0.5 L 90.80782186676737 3.5 L 97.80782186676737 0 L 90.80782186676737 -3.5 L 90.80782186676737 -0.5 L 75.12656718338368 -0.5 Z"/><text text-anchor="middle" pointer-events="none" font-size="8px" fill="#000000" x="57.903910933383685" y="3" transform="rotate(180 57.903910933383685 0)" font-family="sans-serif">ORIGIN</text></g><g class="relationship" transform="translate(147.24105797778623 201.00030203973347) rotate(418.34010484036753)"><path class="outline" fill="#A5ABB6" stroke="none" d="M 25 0.5 L 45.84359241103206 0.5 L 45.84359241103206 -0.5 L 25 -0.5 Z M 105.03109241103206 0.5 L 125.87468482206413 0.5 L 125.87468482206413 3.5 L 132.87468482206413 0 L 125.87468482206413 -3.5 L 125.87468482206413 -0.5 L 105.03109241103206 -0.5 Z"/><text text-anchor="middle" pointer-events="none" font-size="8px" fill="#000000" x="75.43734241103206" y="3" font-family="sans-serif">DESTINATION</text></g><g class="relationship" transform="translate(215.4833533962571 201.34749863922426) rotate(224.72094718636367)"><path class="outline" fill="#A5ABB6" stroke="none" d="M 25 0.5 L 60.211603142541804 0.5 L 60.211603142541804 -0.5 L 25 -0.5 Z M 94.6569156425418 0.5 L 129.8685187850836 0.5 L 129.8685187850836 3.5 L 136.8685187850836 0 L 129.8685187850836 -3.5 L 129.8685187850836 -0.5 L 94.6569156425418 -0.5 Z"/><text text-anchor="middle" pointer-events="none" font-size="8px" fill="#000000" x="77.4342593925418" y="3" transform="rotate(180 77.4342593925418 0)" font-family="sans-serif">ORIGIN</text></g><g class="relationship" transform="translate(215.4833533962571 201.34749863922426) rotate(443.7739081221125)"><path class="outline" fill="#A5ABB6" stroke="none" d="M 25 0.5 L 34.32006536800546 0.5 L 34.32006536800546 -0.5 L 25 -0.5 Z M 93.50756536800546 0.5 L 102.82763073601092 0.5 L 102.82763073601092 3.5 L 109.82763073601092 0 L 102.82763073601092 -3.5 L 102.82763073601092 -0.5 L 93.50756536800546 -0.5 Z"/><text text-anchor="middle" pointer-events="none" font-size="8px" fill="#000000" x="63.91381536800546" y="3" font-family="sans-serif">DESTINATION</text></g><g class="relationship" transform="translate(-52.85386708849377 144.17144150782136) rotate(339.69749075236814)"><path class="outline" fill="#A5ABB6" stroke="none" d="M 25 0.5 L 61.01691575543563 0.5 L 61.01691575543563 -0.5 L 25 -0.5 Z M 95.46222825543563 0.5 L 131.47914401087127 0.5 L 131.47914401087127 3.5 L 138.47914401087127 0 L 131.47914401087127 -3.5 L 131.47914401087127 -0.5 L 95.46222825543563 -0.5 Z"/><text text-anchor="middle" pointer-events="none" font-size="8px" fill="#000000" x="78.23957200543563" y="3" font-family="sans-serif">ORIGIN</text></g><g class="relationship" transform="translate(-52.85386708849377 144.17144150782136) rotate(497.6815368553555)"><path class="outline" fill="#A5ABB6" stroke="none" d="M 25 0.5 L 34.107473532965344 0.5 L 34.107473532965344 -0.5 L 25 -0.5 Z M 93.29497353296534 0.5 L 102.40244706593069 0.5 L 102.40244706593069 3.5 L 109.40244706593069 0 L 102.40244706593069 -3.5 L 102.40244706593069 -0.5 L 93.29497353296534 -0.5 Z"/><text text-anchor="middle" pointer-events="none" font-size="8px" fill="#000000" x="63.701223532965344" y="3" transform="rotate(180 63.701223532965344 0)" font-family="sans-serif">DESTINATION</text></g><g class="relationship" transform="translate(-35.24954904344709 -19.762852273439126) rotate(398.30697780535695)"><path class="outline" fill="#A5ABB6" stroke="none" d="M 25 0.5 L 65.75518569381046 0.5 L 65.75518569381046 -0.5 L 25 -0.5 Z M 100.20049819381046 0.5 L 140.95568388762092 0.5 L 140.95568388762092 3.5 L 147.95568388762092 0 L 140.95568388762092 -3.5 L 140.95568388762092 -0.5 L 100.20049819381046 -0.5 Z"/><text text-anchor="middle" pointer-events="none" font-size="8px" fill="#000000" x="82.97784194381046" y="3" font-family="sans-serif">ORIGIN</text></g><g class="relationship" transform="translate(-35.24954904344709 -19.762852273439126) rotate(246.58588395795329)"><path class="outline" fill="#A5ABB6" stroke="none" d="M 25 0.5 L 26.2216574682354 0.5 L 26.2216574682354 -0.5 L 25 -0.5 Z M 69.5575949682354 0.5 L 70.7792524364708 0.5 L 70.7792524364708 3.5 L 77.7792524364708 0 L 70.7792524364708 -3.5 L 70.7792524364708 -0.5 L 69.5575949682354 -0.5 Z"/><text text-anchor="middle" pointer-events="none" font-size="8px" fill="#000000" x="47.8896262182354" y="3" transform="rotate(180 47.8896262182354 0)" font-family="sans-serif">DESTIN…</text></g><g class="relationship" transform="translate(-79.61793468397764 20.48377458170635) rotate(380.3973459721975)"><path class="outline" fill="#A5ABB6" stroke="none" d="M 25 0.5 L 75.34435651067233 0.5 L 75.34435651067233 -0.5 L 25 -0.5 Z M 109.78966901067233 0.5 L 160.13402552134465 0.5 L 160.13402552134465 3.5 L 167.13402552134465 0 L 160.13402552134465 -3.5 L 160.13402552134465 -0.5 L 109.78966901067233 -0.5 Z"/><text text-anchor="middle" pointer-events="none" font-size="8px" fill="#000000" x="92.56701276067233" y="3" font-family="sans-serif">ORIGIN</text></g><g class="relationship" transform="translate(-79.61793468397764 20.48377458170635) rotate(271.5012492499861)"><path class="outline" fill="#A5ABB6" stroke="none" d="M 25 0.5 L 34.21070289172033 0.5 L 34.21070289172033 -0.5 L 25 -0.5 Z M 93.39820289172033 0.5 L 102.60890578344066 0.5 L 102.60890578344066 3.5 L 109.60890578344066 0 L 102.60890578344066 -3.5 L 102.60890578344066 -0.5 L 93.39820289172033 -0.5 Z"/><text text-anchor="middle" pointer-events="none" font-size="8px" fill="#000000" x="63.80445289172033" y="3" font-family="sans-serif">DESTINATION</text></g><g class="relationship" transform="translate(21.60248627586601 -1.5142670671264984) rotate(408.4425039685111)"><path class="outline" fill="#A5ABB6" stroke="none" d="M 25 0.5 L 38.721009955469476 0.5 L 38.721009955469476 -0.5 L 25 -0.5 Z M 73.16632245546947 0.5 L 86.88733241093895 0.5 L 86.88733241093895 3.5 L 93.88733241093895 0 L 86.88733241093895 -3.5 L 86.88733241093895 -0.5 L 73.16632245546947 -0.5 Z"/><text text-anchor="middle" pointer-events="none" font-size="8px" fill="#000000" x="55.943666205469476" y="3" font-family="sans-serif">ORIGIN</text></g><g class="relationship" transform="translate(21.60248627586601 -1.5142670671264984) rotate(229.04558672767575)"><path class="outline" fill="#A5ABB6" stroke="none" d="M 25 0.5 L 41.4295491037159 0.5 L 41.4295491037159 -0.5 L 25 -0.5 Z M 100.6170491037159 0.5 L 117.0465982074318 0.5 L 117.0465982074318 3.5 L 124.0465982074318 0 L 117.0465982074318 -3.5 L 117.0465982074318 -0.5 L 100.6170491037159 -0.5 Z"/><text text-anchor="middle" pointer-events="none" font-size="8px" fill="#000000" x="71.0232991037159" y="3" transform="rotate(180 71.0232991037159 0)" font-family="sans-serif">DESTINATION</text></g><g class="relationship" transform="translate(41.56252556653074 232.9694949809588) rotate(292.0378640686272)"><path class="outline" fill="#A5ABB6" stroke="none" d="M 25 0.5 L 57.77332248530672 0.5 L 57.77332248530672 -0.5 L 25 -0.5 Z M 92.21863498530672 0.5 L 124.99195747061344 0.5 L 124.99195747061344 3.5 L 131.99195747061344 0 L 124.99195747061344 -3.5 L 124.99195747061344 -0.5 L 92.21863498530672 -0.5 Z"/><text text-anchor="middle" pointer-events="none" font-size="8px" fill="#000000" x="74.99597873530672" y="3" font-family="sans-serif">ORIGIN</text></g><g class="relationship" transform="translate(41.56252556653074 232.9694949809588) rotate(469.696208142678)"><path class="outline" fill="#A5ABB6" stroke="none" d="M 25 0.5 L 41.825867833864294 0.5 L 41.825867833864294 -0.5 L 25 -0.5 Z M 101.0133678338643 0.5 L 117.83923566772859 0.5 L 117.83923566772859 3.5 L 124.83923566772859 0 L 117.83923566772859 -3.5 L 117.83923566772859 -0.5 L 101.0133678338643 -0.5 Z"/><text text-anchor="middle" pointer-events="none" font-size="8px" fill="#000000" x="71.4196178338643" y="3" transform="rotate(180 71.4196178338643 0)" font-family="sans-serif">DESTINATION</text></g><g class="relationship" transform="translate(255.13071902498254 133.34229098759903) rotate(196.52771828637196)"><path class="outline" fill="#A5ABB6" stroke="none" d="M 25 0.5 L 59.94108519823949 0.5 L 59.94108519823949 -0.5 L 25 -0.5 Z M 94.38639769823949 0.5 L 129.32748289647898 0.5 L 129.32748289647898 3.5 L 136.32748289647898 0 L 129.32748289647898 -3.5 L 129.32748289647898 -0.5 L 94.38639769823949 -0.5 Z"/><text text-anchor="middle" pointer-events="none" font-size="8px" fill="#000000" x="77.16374144823949" y="3" transform="rotate(180 77.16374144823949 0)" font-family="sans-serif">ORIGIN</text></g><g class="relationship" transform="translate(255.13071902498254 133.34229098759903) rotate(330.31406878555924)"><path class="outline" fill="#A5ABB6" stroke="none" d="M 25 0.5 L 36.777224429477414 0.5 L 36.777224429477414 -0.5 L 25 -0.5 Z M 95.96472442947741 0.5 L 107.74194885895483 0.5 L 107.74194885895483 3.5 L 114.74194885895483 0 L 107.74194885895483 -3.5 L 107.74194885895483 -0.5 L 95.96472442947741 -0.5 Z"/><text text-anchor="middle" pointer-events="none" font-size="8px" fill="#000000" x="66.37097442947741" y="3" font-family="sans-serif">DESTINATION</text></g><g class="relationship" transform="translate(-22.89495908861087 38.74591818537018) rotate(381.5433039238119)"><path class="outline" fill="#A5ABB6" stroke="none" d="M 25 0.5 L 45.592010416248456 0.5 L 45.592010416248456 -0.5 L 25 -0.5 Z M 80.03732291624846 0.5 L 100.62933333249691 0.5 L 100.62933333249691 3.5 L 107.62933333249691 0 L 100.62933333249691 -3.5 L 100.62933333249691 -0.5 L 80.03732291624846 -0.5 Z"/><text text-anchor="middle" pointer-events="none" font-size="8px" fill="#000000" x="62.814666666248456" y="3" font-family="sans-serif">ORIGIN</text></g><g class="relationship" transform="translate(-22.89495908861087 38.74591818537018) rotate(250.80764075220287)"><path class="outline" fill="#A5ABB6" stroke="none" d="M 25 0.5 L 47.81559652817269 0.5 L 47.81559652817269 -0.5 L 25 -0.5 Z M 107.00309652817269 0.5 L 129.81869305634538 0.5 L 129.81869305634538 3.5 L 136.81869305634538 0 L 129.81869305634538 -3.5 L 129.81869305634538 -0.5 L 107.00309652817269 -0.5 Z"/><text text-anchor="middle" pointer-events="none" font-size="8px" fill="#000000" x="77.40934652817269" y="3" transform="rotate(180 77.40934652817269 0)" font-family="sans-serif">DESTINATION</text></g><g class="relationship" transform="translate(-20.94435900253253 194.90231961007126) rotate(318.49022503246977)"><path class="outline" fill="#A5ABB6" stroke="none" d="M 25 0.5 L 60.344631998532904 0.5 L 60.344631998532904 -0.5 L 25 -0.5 Z M 94.7899444985329 0.5 L 130.1345764970658 0.5 L 130.1345764970658 3.5 L 137.1345764970658 0 L 130.1345764970658 -3.5 L 130.1345764970658 -0.5 L 94.7899444985329 -0.5 Z"/><text text-anchor="middle" pointer-events="none" font-size="8px" fill="#000000" x="77.5672882485329" y="3" font-family="sans-serif">ORIGIN</text></g><g class="relationship" transform="translate(-20.94435900253253 194.90231961007126) rotate(523.1530894318869)"><path class="outline" fill="#A5ABB6" stroke="none" d="M 25 0.5 L 35.49416122379574 0.5 L 35.49416122379574 -0.5 L 25 -0.5 Z M 94.68166122379574 0.5 L 105.17582244759149 0.5 L 105.17582244759149 3.5 L 112.17582244759149 0 L 105.17582244759149 -3.5 L 105.17582244759149 -0.5 L 94.68166122379574 -0.5 Z"/><text text-anchor="middle" pointer-events="none" font-size="8px" fill="#000000" x="65.08791122379574" y="3" transform="rotate(180 65.08791122379574 0)" font-family="sans-serif">DESTINATION</text></g></g><g class="layer nodes"><g class="node" transform="translate(100.46892908313598,87.44798339179968)"><circle class="outline" cx="0" cy="0" r="25" fill="#4C8EDA" stroke="#2870c2" stroke-width="2px"/><text text-anchor="middle" pointer-events="none" font-family="sans-serif" dy="1.5625" font-size="25" fill="#FFFFFF"/><text text-anchor="middle" pointer-events="none" x="0" y="5" font-size="10px" fill="#FFFFFF" font-family="sans-serif"> LAX</text></g><g class="node" transform="translate(230.1056890537508,335.37987275012966)"><circle class="outline" cx="0" cy="0" r="25" fill="#4C8EDA" stroke="#2870c2" stroke-width="2px"/><text text-anchor="middle" pointer-events="none" font-family="sans-serif" dy="1.5625" font-size="25" fill="#FFFFFF"/><text text-anchor="middle" pointer-events="none" x="0" y="5" font-size="10px" fill="#FFFFFF" font-family="sans-serif"> FAT</text></g><g class="node" transform="translate(376.53197678822244,64.13573866484472)"><circle class="outline" cx="0" cy="0" r="25" fill="#4C8EDA" stroke="#2870c2" stroke-width="2px"/><text text-anchor="middle" pointer-events="none" font-family="sans-serif" dy="1.5625" font-size="25" fill="#FFFFFF"/><text text-anchor="middle" pointer-events="none" x="0" y="5" font-size="10px" fill="#FFFFFF" font-family="sans-serif"> SMF</text></g><g class="node" transform="translate(-76.09135037337522,-114.07892723166917)"><circle class="outline" cx="0" cy="0" r="25" fill="#4C8EDA" stroke="#2870c2" stroke-width="2px"/><text text-anchor="middle" pointer-events="none" font-family="sans-serif" dy="1.5625" font-size="25" fill="#FFFFFF"/><text text-anchor="middle" pointer-events="none" x="0" y="5" font-size="10px" fill="#FFFFFF" font-family="sans-serif"> ABQ</text></g><g class="node" transform="translate(254.4259497432745,-173.29071874440683)"><circle class="outline" cx="0" cy="0" r="25" fill="#4C8EDA" stroke="#2870c2" stroke-width="2px"/><text text-anchor="middle" pointer-events="none" font-family="sans-serif" dy="1.5625" font-size="25" fill="#FFFFFF"/><text text-anchor="middle" pointer-events="none" x="0" y="5" font-size="10px" fill="#FFFFFF" font-family="sans-serif"> IAH</text></g><g class="node" transform="translate(-152.23294271055036,234.65799910515653)"><circle class="outline" cx="0" cy="0" r="25" fill="#4C8EDA" stroke="#2870c2" stroke-width="2px"/><text text-anchor="middle" pointer-events="none" font-family="sans-serif" dy="1.5625" font-size="25" fill="#FFFFFF"/><text text-anchor="middle" pointer-events="none" x="0" y="5" font-size="10px" fill="#FFFFFF" font-family="sans-serif"> TUS</text></g><g class="node" transform="translate(-8.93823417503362,374.04206428843935)"><circle class="outline" cx="0" cy="0" r="25" fill="#4C8EDA" stroke="#2870c2" stroke-width="2px"/><text text-anchor="middle" pointer-events="none" font-family="sans-serif" dy="1.5625" font-size="25" fill="#FFFFFF"/><text text-anchor="middle" pointer-events="none" x="0" y="5" font-size="10px" fill="#FFFFFF" font-family="sans-serif"> LAS</text></g><g class="node" transform="translate(121.08089091896086,254.9535839490233)"><circle class="outline" cx="0" cy="0" r="25" fill="#ECB5C9" stroke="#da7298" stroke-width="2px"/><text text-anchor="middle" pointer-events="none" font-family="sans-serif" dy="1.5625" font-size="25" fill="#2A2C34"/><text text-anchor="middle" pointer-events="none" x="0" y="5" font-size="10px" fill="#2A2C34" font-family="sans-serif"> 11/4/2015</text></g><g class="node" transform="translate(180.85845255567202,250.08621297386816)"><circle class="outline" cx="0" cy="0" r="25" fill="#ECB5C9" stroke="#da7298" stroke-width="2px"/><text text-anchor="middle" pointer-events="none" font-family="sans-serif" dy="1.5625" font-size="25" fill="#2A2C34"/><text text-anchor="middle" pointer-events="none" x="0" y="5" font-size="10px" fill="#2A2C34" font-family="sans-serif"> 11/3/2015</text></g><g class="node" transform="translate(259.8444388181042,10.422111220709091)"><circle class="outline" cx="0" cy="0" r="25" fill="#ECB5C9" stroke="#da7298" stroke-width="2px"/><text text-anchor="middle" pointer-events="none" font-family="sans-serif" dy="1.5625" font-size="25" fill="#2A2C34"/><text text-anchor="middle" pointer-events="none" x="0" y="5" font-size="10px" fill="#2A2C34" font-family="sans-serif"> 11/3/2015</text></g><g class="node" transform="translate(56.29759243847619,-99.18464796439476)"><circle class="outline" cx="0" cy="0" r="25" fill="#ECB5C9" stroke="#da7298" stroke-width="2px"/><text text-anchor="middle" pointer-events="none" font-family="sans-serif" dy="1.5625" font-size="25" fill="#2A2C34"/><text text-anchor="middle" pointer-events="none" x="0" y="5" font-size="10px" fill="#2A2C34" font-family="sans-serif"> 11/3/2015</text></g><g class="node" transform="translate(220.75922816425285,55.65907869848839)"><circle class="outline" cx="0" cy="0" r="25" fill="#ECB5C9" stroke="#da7298" stroke-width="2px"/><text text-anchor="middle" pointer-events="none" font-family="sans-serif" dy="1.5625" font-size="25" fill="#2A2C34"/><text text-anchor="middle" pointer-events="none" x="0" y="5" font-size="10px" fill="#2A2C34" font-family="sans-serif"> 11/2/2015</text></g><g class="node" transform="translate(276.1250764196427,77.44331989173135)"><circle class="outline" cx="0" cy="0" r="25" fill="#ECB5C9" stroke="#da7298" stroke-width="2px"/><text text-anchor="middle" pointer-events="none" font-family="sans-serif" dy="1.5625" font-size="25" fill="#2A2C34"/><text text-anchor="middle" pointer-events="none" x="0" y="5" font-size="10px" fill="#2A2C34" font-family="sans-serif"> 11/1/2015</text></g><g class="node" transform="translate(181.46902097629416,-49.380543258147036)"><circle class="outline" cx="0" cy="0" r="25" fill="#ECB5C9" stroke="#da7298" stroke-width="2px"/><text text-anchor="middle" pointer-events="none" font-family="sans-serif" dy="1.5625" font-size="25" fill="#2A2C34"/><text text-anchor="middle" pointer-events="none" x="0" y="5" font-size="10px" fill="#2A2C34" font-family="sans-serif"> 11/30/20…</text></g><g class="node" transform="translate(10.729619965779595,-60.26403788043928)"><circle class="outline" cx="0" cy="0" r="25" fill="#ECB5C9" stroke="#da7298" stroke-width="2px"/><text text-anchor="middle" pointer-events="none" font-family="sans-serif" dy="1.5625" font-size="25" fill="#2A2C34"/><text text-anchor="middle" pointer-events="none" x="0" y="5" font-size="10px" fill="#2A2C34" font-family="sans-serif"> 11/4/2015</text></g><g class="node" transform="translate(67.04785968334501,-40.5633397517855)"><circle class="outline" cx="0" cy="0" r="25" fill="#ECB5C9" stroke="#da7298" stroke-width="2px"/><text text-anchor="middle" pointer-events="none" font-family="sans-serif" dy="1.5625" font-size="25" fill="#2A2C34"/><text text-anchor="middle" pointer-events="none" x="0" y="5" font-size="10px" fill="#2A2C34" font-family="sans-serif"> 11/1/2015</text></g><g class="node" transform="translate(147.24105797778623,201.00030203973347)"><circle class="outline" cx="0" cy="0" r="25" fill="#ECB5C9" stroke="#da7298" stroke-width="2px"/><text text-anchor="middle" pointer-events="none" font-family="sans-serif" dy="1.5625" font-size="25" fill="#2A2C34"/><text text-anchor="middle" pointer-events="none" x="0" y="5" font-size="10px" fill="#2A2C34" font-family="sans-serif"> 11/1/2015</text></g><g class="node" transform="translate(215.4833533962571,201.34749863922426)"><circle class="outline" cx="0" cy="0" r="25" fill="#ECB5C9" stroke="#da7298" stroke-width="2px"/><text text-anchor="middle" pointer-events="none" font-family="sans-serif" dy="1.5625" font-size="25" fill="#2A2C34"/><text text-anchor="middle" pointer-events="none" x="0" y="5" font-size="10px" fill="#2A2C34" font-family="sans-serif"> 11/2/2015</text></g><g class="node" transform="translate(-52.85386708849377,144.17144150782136)"><circle class="outline" cx="0" cy="0" r="25" fill="#ECB5C9" stroke="#da7298" stroke-width="2px"/><text text-anchor="middle" pointer-events="none" font-family="sans-serif" dy="1.5625" font-size="25" fill="#2A2C34"/><text text-anchor="middle" pointer-events="none" x="0" y="5" font-size="10px" fill="#2A2C34" font-family="sans-serif"> 11/2/2015</text></g><g class="node" transform="translate(-35.24954904344709,-19.762852273439126)"><circle class="outline" cx="0" cy="0" r="25" fill="#ECB5C9" stroke="#da7298" stroke-width="2px"/><text text-anchor="middle" pointer-events="none" font-family="sans-serif" dy="1.5625" font-size="25" fill="#2A2C34"/><text text-anchor="middle" pointer-events="none" x="0" y="5" font-size="10px" fill="#2A2C34" font-family="sans-serif"> 11/1/2015</text></g><g class="node" transform="translate(-79.61793468397764,20.48377458170635)"><circle class="outline" cx="0" cy="0" r="25" fill="#ECB5C9" stroke="#da7298" stroke-width="2px"/><text text-anchor="middle" pointer-events="none" font-family="sans-serif" dy="1.5625" font-size="25" fill="#2A2C34"/><text text-anchor="middle" pointer-events="none" x="0" y="5" font-size="10px" fill="#2A2C34" font-family="sans-serif"> 11/3/2015</text></g><g class="node" transform="translate(21.60248627586601,-1.5142670671264984)"><circle class="outline" cx="0" cy="0" r="25" fill="#ECB5C9" stroke="#da7298" stroke-width="2px"/><text text-anchor="middle" pointer-events="none" font-family="sans-serif" dy="1.5625" font-size="25" fill="#2A2C34"/><text text-anchor="middle" pointer-events="none" x="0" y="5" font-size="10px" fill="#2A2C34" font-family="sans-serif"> 11/2/2015</text></g><g class="node" transform="translate(41.56252556653074,232.9694949809588)"><circle class="outline" cx="0" cy="0" r="25" fill="#ECB5C9" stroke="#da7298" stroke-width="2px"/><text text-anchor="middle" pointer-events="none" font-family="sans-serif" dy="1.5625" font-size="25" fill="#2A2C34"/><text text-anchor="middle" pointer-events="none" x="0" y="5" font-size="10px" fill="#2A2C34" font-family="sans-serif"> 11/29/20…</text></g><g class="node" transform="translate(255.13071902498254,133.34229098759903)"><circle class="outline" cx="0" cy="0" r="25" fill="#ECB5C9" stroke="#da7298" stroke-width="2px"/><text text-anchor="middle" pointer-events="none" font-family="sans-serif" dy="1.5625" font-size="25" fill="#2A2C34"/><text text-anchor="middle" pointer-events="none" x="0" y="5" font-size="10px" fill="#2A2C34" font-family="sans-serif"> 11/4/2015</text></g><g class="node" transform="translate(-22.89495908861087,38.74591818537018)"><circle class="outline" cx="0" cy="0" r="25" fill="#ECB5C9" stroke="#da7298" stroke-width="2px"/><text text-anchor="middle" pointer-events="none" font-family="sans-serif" dy="1.5625" font-size="25" fill="#2A2C34"/><text text-anchor="middle" pointer-events="none" x="0" y="5" font-size="10px" fill="#2A2C34" font-family="sans-serif"> 11/2/2015</text></g><g class="node" transform="translate(-20.94435900253253,194.90231961007126)"><circle class="outline" cx="0" cy="0" r="25" fill="#ECB5C9" stroke="#da7298" stroke-width="2px"/><text text-anchor="middle" pointer-events="none" font-family="sans-serif" dy="1.5625" font-size="25" fill="#2A2C34"/><text text-anchor="middle" pointer-events="none" x="0" y="5" font-size="10px" fill="#2A2C34" font-family="sans-serif"> 11/1/2015</text></g></g></svg>